# xmcd
# 
# Track frame offsets:
#     150
#     32314
#     95972
#     130551
# 
# Disc length: 2137
# 
# Revision: 0
# Processed by: cddbd v1.5.2PL0 Copyright (c) Steve Scherf et al.
# Submitted via: fre:ac v1.0.17
# 
DISCID=28085704
DTITLE=Albrecht Vigoleis Thelen - Die Insel des zweiten Gesichts (Hörspiel - NDR)
DYEAR=2002
DGENRE=Speech
TTITLE0=Erster Teil 2-1
TTITLE1=Erster Teil 2-2
TTITLE2=Erster Teil 2-3
TTITLE3=Erster Teil 2-4
EXTD=
EXTT0=
EXTT1=
EXTT2=
EXTT3=
PLAYORDER=
